<svg width="368" height="842" viewBox="0 0 368 842" fill="none" xmlns="http://www.w3.org/2000/svg">
<path d="M36.5687 94.3929C8.57015 95.3103 -0.929365 107.695 0.0705838 126.5V808.985C0.0705838 835.13 21.0695 841.093 36.5687 841.093H126H151.5C172 841.093 178.5 825.5 178.5 812C178.5 798.5 190 786.5 204.5 786.5H367.5V762C367.5 744 365.516 251.605 365.516 179V79.3929V39.0292V0.00023222H265C249.36 0.00023222 236.061 0 236.061 0V64.5002C236.061 82.3887 228.5 94.3929 204.5 94.3929C171.502 94.3929 64.5673 93.4756 36.5687 94.3929Z" fill="#F0F0F0"/>
</svg>
