<svg width="1376" height="772" viewBox="0 0 1376 772" fill="none" xmlns="http://www.w3.org/2000/svg">
<path d="M36.5687 78.8927C8.57015 79.8101 -0.929365 92.1944 0.0705838 111V739.485C0.0705838 765.629 21.0695 771.592 36.5687 771.592C60.0675 771.592 1094.51 772.51 1118.01 771.592C1141.51 770.675 1154.01 766.547 1154.01 733.981C1154.01 701.414 1172.01 696.828 1194.51 696.828H1339C1371.5 696.828 1376 678.022 1376 659.216V111.918C1376 83.0208 1359.5 78.8927 1331 78.8927H1115.51C1071.02 78.8927 1055.52 73.3886 1055.52 38.529C1055.52 3.66943 1031.52 0 1012.02 0H309.059C274.061 0 270.061 20.6405 270.061 38.529C270.061 56.4175 264.062 78.8927 231.063 78.8927C198.065 78.8927 64.5673 77.9753 36.5687 78.8927Z" fill="#F0F0F0"/>
</svg>
