<svg width="35" height="35" viewBox="0 0 35 35" fill="none" xmlns="http://www.w3.org/2000/svg">
<path d="M7.29169 17.2288C6.7394 17.2288 6.29169 17.6766 6.29169 18.2288C6.29169 18.7811 6.7394 19.2288 7.29169 19.2288V17.2288ZM27.7084 19.2288C28.2606 19.2288 28.7084 18.7811 28.7084 18.2288C28.7084 17.6766 28.2606 17.2288 27.7084 17.2288V19.2288ZM7.29169 11.3955C6.7394 11.3955 6.29169 11.8432 6.29169 12.3955C6.29169 12.9478 6.7394 13.3955 7.29169 13.3955V11.3955ZM20.9023 13.3955C21.4546 13.3955 21.9023 12.9478 21.9023 12.3955C21.9023 11.8432 21.4546 11.3955 20.9023 11.3955V13.3955ZM7.29169 23.0622C6.7394 23.0622 6.29169 23.5099 6.29169 24.0622C6.29169 24.6145 6.7394 25.0622 7.29169 25.0622V23.0622ZM20.9023 25.0622C21.4546 25.0622 21.9023 24.6145 21.9023 24.0622C21.9023 23.5099 21.4546 23.0622 20.9023 23.0622V25.0622ZM7.29169 19.2288H27.7084V17.2288H7.29169V19.2288ZM7.29169 13.3955H20.9023V11.3955H7.29169V13.3955ZM7.29169 25.0622H20.9023V23.0622H7.29169V25.0622Z" fill="#282828"/>
</svg>
