<svg width="18" height="18" viewBox="0 0 18 18" fill="none" xmlns="http://www.w3.org/2000/svg">
<path d="M8.73578 0C8.04654 0 7.48789 0.558648 7.48789 1.24789V7.48789H1.24789C0.558648 7.48789 0 8.04654 0 8.73578C0 9.42502 0.558648 9.98367 1.24789 9.98367H7.48789V16.2237C7.48789 16.9129 8.04654 17.4716 8.73578 17.4716C9.42502 17.4716 9.98367 16.9129 9.98367 16.2237V9.98367H16.2237C16.9129 9.98367 17.4716 9.42502 17.4716 8.73578C17.4716 8.04654 16.9129 7.48789 16.2237 7.48789H9.98367V1.24789C9.98367 0.558648 9.42502 0 8.73578 0Z" fill="#808080"/>
</svg>
