<svg width="27" height="27" viewBox="0 0 27 27" fill="none" xmlns="http://www.w3.org/2000/svg">
<path fill-rule="evenodd" clip-rule="evenodd" d="M16.2866 15.75H10.7133C9.07298 15.8314 7.61974 16.8334 6.9603 18.3375C6.16493 19.899 7.7523 21.375 9.59843 21.375H17.4014C19.2487 21.375 20.8361 19.899 20.0396 18.3375C19.3801 16.8334 17.9269 15.8314 16.2866 15.75Z" stroke="#7E7E7E" stroke-width="1.5" stroke-linecap="round" stroke-linejoin="round"/>
<path fill-rule="evenodd" clip-rule="evenodd" d="M16.8749 9C16.8749 10.864 15.3638 12.375 13.4999 12.375C11.6359 12.375 10.1249 10.864 10.1249 9C10.1249 7.13604 11.6359 5.625 13.4999 5.625C14.395 5.625 15.2534 5.98058 15.8864 6.61351C16.5193 7.24645 16.8749 8.10489 16.8749 9Z" stroke="#7E7E7E" stroke-width="1.5" stroke-linecap="round" stroke-linejoin="round"/>
</svg>
